<svg xmlns="http://www.w3.org/2000/svg" xmlns:xlink="http://www.w3.org/1999/xlink" width="112" height="112" version="1.0"><defs><linearGradient id="a"><stop offset="0" style="stop-color:#ffd43b;stop-opacity:1"/><stop offset="1" style="stop-color:#ffe873;stop-opacity:1"/></linearGradient><linearGradient id="b"><stop offset="0" style="stop-color:#5a9fd4;stop-opacity:1"/><stop offset="1" style="stop-color:#306998;stop-opacity:1"/></linearGradient><linearGradient xlink:href="#a" id="e" x1="150.961" x2="112.031" y1="192.352" y2="137.273" gradientTransform="matrix(.56254 0 0 .56797 -14.572 -11.897)" gradientUnits="userSpaceOnUse"/><linearGradient xlink:href="#b" id="d" x1="26.649" x2="135.665" y1="20.604" y2="114.398" gradientTransform="matrix(.56254 0 0 .56797 -14.572 -11.897)" gradientUnits="userSpaceOnUse"/></defs><path d="M55.338-.194C50.754-.172 46.378.22 42.526.9 31.179 2.905 29.119 7.1 29.119 14.838v10.218h26.813v3.407H19.057c-7.793 0-14.616 4.683-16.75 13.593-2.462 10.213-2.571 16.586 0 27.25C4.213 77.244 8.764 82.9 16.557 82.9h9.219V70.65c0-8.85 7.657-16.656 16.75-16.656h26.78c7.456 0 13.407-6.138 13.407-13.625V14.838c0-7.267-6.13-12.725-13.406-13.938C64.7.133 59.922-.215 55.338-.194m-14.5 8.22c2.77 0 5.031 2.298 5.031 5.124 0 2.817-2.261 5.094-5.03 5.094-2.78 0-5.032-2.277-5.032-5.094 0-2.826 2.252-5.125 5.031-5.125" style="fill:url(#d);fill-opacity:1"/><path d="M86.057 28.463v11.906c0 9.23-7.826 17-16.75 17H42.526c-7.336 0-13.407 6.278-13.407 13.625v25.531c0 7.267 6.319 11.54 13.407 13.625 8.487 2.496 16.626 2.947 26.78 0 6.751-1.954 13.407-5.887 13.407-13.625V86.306H55.932V82.9h40.187c7.793 0 10.697-5.435 13.407-13.594 2.799-8.398 2.68-16.475 0-27.25-1.926-7.757-5.604-13.593-13.407-13.593zM70.994 93.119c2.78 0 5.032 2.277 5.032 5.094 0 2.826-2.252 5.125-5.032 5.125-2.77 0-5.03-2.299-5.03-5.125 0-2.817 2.26-5.094 5.03-5.094" style="fill:url(#e);fill-opacity:1"/></svg>